<?xml version="1.0" encoding="UTF-8" standalone="no"?>
<!-- Created with Inkscape (http://www.inkscape.org/) -->

<svg
   xmlns:dc="http://purl.org/dc/elements/1.1/"
   xmlns:cc="http://creativecommons.org/ns#"
   xmlns:rdf="http://www.w3.org/1999/02/22-rdf-syntax-ns#"
   xmlns:svg="http://www.w3.org/2000/svg"
   xmlns="http://www.w3.org/2000/svg"
   xmlns:sodipodi="http://sodipodi.sourceforge.net/DTD/sodipodi-0.dtd"
   xmlns:inkscape="http://www.inkscape.org/namespaces/inkscape"
   width="210mm"
   height="297mm"
   viewBox="0 0 210 297"
   version="1.1"
   id="svg823"
   inkscape:version="0.92.3 (2405546, 2018-03-11)"
   sodipodi:docname="cloud3.svg">
  <defs
     id="defs817" />
  <sodipodi:namedview
     id="base"
     pagecolor="#ffffff"
     bordercolor="#666666"
     borderopacity="1.0"
     inkscape:pageopacity="0.0"
     inkscape:pageshadow="2"
     inkscape:zoom="0.12374369"
     inkscape:cx="-519.65338"
     inkscape:cy="-452.67403"
     inkscape:document-units="mm"
     inkscape:current-layer="layer1"
     showgrid="false"
     showguides="false"
     inkscape:window-width="1600"
     inkscape:window-height="790"
     inkscape:window-x="0"
     inkscape:window-y="27"
     inkscape:window-maximized="1" />
  <metadata
     id="metadata820">
    <rdf:RDF>
      <cc:Work
         rdf:about="">
        <dc:format>image/svg+xml</dc:format>
        <dc:type
           rdf:resource="http://purl.org/dc/dcmitype/StillImage" />
        <dc:title></dc:title>
      </cc:Work>
    </rdf:RDF>
  </metadata>
  <g
     inkscape:label="Layer 1"
     inkscape:groupmode="layer"
     id="layer1">
    <path
       style="opacity:1;fill:none;fill-opacity:1;stroke:#50409a;stroke-width:20.00126009;stroke-miterlimit:4;stroke-dasharray:none;stroke-opacity:1"
       d="M 428.30469 319.99609 A 192.39197 192.39197 0 0 0 253.35547 432.79688 A 137.38075 137.38075 0 0 0 216.17188 427.53516 A 137.38075 137.38075 0 0 0 78.791016 564.91602 A 137.38075 137.38075 0 0 0 82.134766 594.25391 C 55.693605 612.21258 38.386719 642.52828 38.386719 677.03711 L 38.386719 679.06836 C 38.386719 734.46836 82.98672 779.06836 138.38672 779.06836 L 615.1875 779.06836 C 670.5875 779.06836 715.1875 734.46836 715.1875 679.06836 L 715.1875 677.03711 C 715.1875 621.63711 670.5875 577.03711 615.1875 577.03711 L 609.25977 577.03711 A 192.39197 192.39197 0 0 0 620.69727 512.38672 A 192.39197 192.39197 0 0 0 428.30469 319.99609 z "
       transform="scale(0.26458333)"
       id="rect1423" />
  </g>
</svg>
