<svg xmlns="http://www.w3.org/2000/svg" viewBox="0 0 308.36 124.48"><defs><style>.cls-1{fill:#50419a;}.cls-2{fill:#231f20;}.cls-3{fill:none;stroke:#50419a;stroke-miterlimit:10;stroke-width:1.21px;}</style></defs><title>Honest_Care1</title><g id="Layer_2" data-name="Layer 2"><g id="Layer_1-2" data-name="Layer 1"><path class="cls-1" d="M0,94.76H8.08v10.9H18.44V94.76h8.08v29.13H18.44V112.82H8.08v11.07H0Z"/><path class="cls-1" d="M30.67,109.41v-.08c0-8.37,6.75-15.16,15.74-15.16s15.65,6.71,15.65,15.07v.09c0,8.36-6.74,15.15-15.74,15.15S30.67,117.78,30.67,109.41Zm23.15,0v-.08a7.57,7.57,0,0,0-7.5-7.87c-4.41,0-7.36,3.58-7.36,7.78v.09a7.56,7.56,0,0,0,7.45,7.86C50.86,117.19,53.82,113.61,53.82,109.41Z"/><path class="cls-1" d="M66.26,94.76h7.53l12,15.4V94.76h8v29.13H86.7l-12.45-16v16h-8Z"/><path class="cls-1" d="M98.93,94.76h23.43v6.86H106.92V106h14v6.37h-14V117h15.65v6.86H98.93Z"/><path class="cls-1" d="M124.48,119.57l4.5-5.37a15,15,0,0,0,9.45,3.49c2.16,0,3.33-.75,3.33-2v-.08c0-1.21-1-1.87-4.91-2.79-6.21-1.41-11-3.16-11-9.16v-.08c0-5.41,4.28-9.32,11.28-9.32a18.31,18.31,0,0,1,12,3.87l-4,5.7a14.66,14.66,0,0,0-8.16-2.87c-2,0-2.92.83-2.92,1.87v.08c0,1.34,1,1.92,5,2.84,6.7,1.45,10.87,3.62,10.87,9.07v.08c0,6-4.71,9.49-11.78,9.49A20.38,20.38,0,0,1,124.48,119.57Z"/><path class="cls-1" d="M160.11,101.83h-8.74V94.76h25.56v7.07h-8.74v22.06h-8.08Z"/><path class="cls-2" d="M192.45,109.41v-.08c0-8.25,6.16-15.07,14.57-15.07,5.2,0,8.32,1.91,11.32,4.66l-1.54,1.58A13.35,13.35,0,0,0,207,96.21c-7,0-12.27,5.71-12.27,13v.09c0,7.36,5.37,13.11,12.32,13.11,4.2,0,7.07-1.63,10-4.54l1.46,1.42c-3.09,3-6.42,5.07-11.58,5.07C198.61,124.39,192.45,117.78,192.45,109.41Z"/><path class="cls-2" d="M235.53,94.55h2.08l13.57,29.34H248.8l-3.7-8.15H227.91l-3.71,8.15H222Zm8.65,19.23-7.66-16.86-7.7,16.86Z"/><path class="cls-2" d="M257.33,94.76h12.24c3.58,0,6.45,1.12,8.2,2.87A7.69,7.69,0,0,1,280,103v.08c0,4.87-3.62,7.66-8.54,8.33l9.62,12.44h-2.75L269,111.82H259.5v12.07h-2.17Zm12,15.11c4.87,0,8.49-2.46,8.49-6.66v-.09c0-3.91-3.08-6.37-8.36-6.37H259.5v13.12Z"/><path class="cls-2" d="M287.42,94.76h20.73v2H289.59V108.2h16.69v2H289.59v11.7h18.77v2H287.42Z"/><line class="cls-3" x1="103.74" y1="0.59" x2="156.31" y2="10.22"/><line class="cls-3" x1="144.36" y1="59.7" x2="103.74" y2="0.59"/><line class="cls-3" x1="156.31" y1="10.22" x2="144.36" y2="59.7"/><line class="cls-3" x1="144.36" y1="59.7" x2="156.31" y2="10.22"/><line class="cls-3" x1="194.24" y1="64.83" x2="144.36" y2="59.7"/><line class="cls-3" x1="156.31" y1="10.22" x2="194.24" y2="64.83"/><line class="cls-3" x1="146.13" y1="80.45" x2="145.25" y2="70.07"/><line class="cls-3" x1="126" y1="80.99" x2="146.13" y2="80.45"/><line class="cls-3" x1="145.25" y1="70.07" x2="126" y2="80.99"/><line class="cls-3" x1="144.36" y1="59.7" x2="146.13" y2="80.45"/><line class="cls-3" x1="194.24" y1="64.83" x2="144.36" y2="59.7"/><line class="cls-3" x1="146.13" y1="80.45" x2="194.24" y2="64.83"/><line class="cls-3" x1="194.24" y1="64.83" x2="146.13" y2="80.45"/><line class="cls-3" x1="197.2" y1="66.93" x2="194.24" y2="64.83"/><line class="cls-3" x1="146.13" y1="80.45" x2="197.2" y2="66.93"/><line class="cls-3" x1="194.24" y1="64.83" x2="197.2" y2="66.93"/><line class="cls-3" x1="180.87" y1="45.57" x2="194.24" y2="64.83"/><line class="cls-3" x1="200.7" y1="44.05" x2="180.87" y2="45.57"/><line class="cls-3" x1="197.2" y1="66.93" x2="200.7" y2="44.05"/><line class="cls-3" x1="198.38" y1="59.21" x2="200.7" y2="44.05"/><line class="cls-3" x1="215.02" y1="58.61" x2="198.38" y2="59.21"/><line class="cls-3" x1="200.7" y1="44.05" x2="215.02" y2="58.61"/><line class="cls-3" x1="120.77" y1="25.37" x2="144.36" y2="59.7"/><line class="cls-3" x1="93.19" y1="22.33" x2="120.77" y2="25.37"/><line class="cls-3" x1="144.36" y1="59.7" x2="93.19" y2="22.33"/><line class="cls-3" x1="215.17" y1="64.23" x2="215.02" y2="58.61"/><line class="cls-3" x1="207.95" y1="58.87" x2="215.17" y2="64.23"/><line class="cls-3" x1="215.02" y1="58.61" x2="207.95" y2="58.87"/></g></g></svg>