<svg xmlns="http://www.w3.org/2000/svg" viewBox="0 0 176.93 63.95"><defs><style>.cls-1{fill:#50419a;}.cls-2{fill:#231f20;}</style></defs><title>Honest_Care3</title><g id="Layer_2" data-name="Layer 2"><g id="Layer_1-2" data-name="Layer 1"><path class="cls-1" d="M0,.58H8.08V11.49H18.44V.58h8.08V29.72H18.44V18.65H8.08V29.72H0Z"/><path class="cls-1" d="M30.67,15.24v-.09C30.67,6.79,37.42,0,46.41,0S62.06,6.7,62.06,15.07v.08c0,8.37-6.74,15.15-15.74,15.15S30.67,23.6,30.67,15.24Zm23.15,0v-.09a7.58,7.58,0,0,0-7.5-7.87c-4.41,0-7.36,3.58-7.36,7.79v.08A7.56,7.56,0,0,0,46.41,23C50.86,23,53.82,19.44,53.82,15.24Z"/><path class="cls-1" d="M66.26.58h7.53l12,15.4V.58h8V29.72H86.7l-12.45-16v16h-8Z"/><path class="cls-1" d="M98.93.58h23.43V7.45H106.92v4.41h14v6.37h-14v4.62h15.65v6.87H98.93Z"/><path class="cls-1" d="M124.48,25.39,129,20a15,15,0,0,0,9.45,3.5c2.16,0,3.33-.75,3.33-2v-.08c0-1.21-1-1.88-4.91-2.79-6.21-1.42-11-3.16-11-9.16V9.41c0-5.41,4.28-9.33,11.28-9.33a18.37,18.37,0,0,1,12,3.87l-4,5.71a14.58,14.58,0,0,0-8.16-2.87c-2,0-2.92.83-2.92,1.87v.08c0,1.33,1,1.92,5,2.83,6.7,1.46,10.87,3.62,10.87,9.08v.08c0,5.95-4.71,9.49-11.78,9.49A20.33,20.33,0,0,1,124.48,25.39Z"/><path class="cls-1" d="M160.11,7.66h-8.74V.58h25.56V7.66h-8.74V29.72h-8.08Z"/><path class="cls-2" d="M.72,49v-.08c0-8.24,6.16-15.07,14.56-15.07,5.21,0,8.33,1.92,11.33,4.66l-1.54,1.58a13.4,13.4,0,0,0-9.83-4.28c-7,0-12.28,5.7-12.28,13v.08C3,56.25,8.33,62,15.28,62c4.21,0,7.08-1.62,10-4.54l1.45,1.42C23.69,61.91,20.36,64,15.2,64,6.88,64,.72,57.33.72,49Z"/><path class="cls-2" d="M43.79,34.1h2.08L59.45,63.45H57.07l-3.7-8.16H36.18l-3.71,8.16H30.22Zm8.66,19.23L44.79,36.47l-7.7,16.86Z"/><path class="cls-2" d="M65.6,34.31H77.84c3.58,0,6.45,1.12,8.2,2.87a7.7,7.7,0,0,1,2.2,5.41v.09c0,4.87-3.62,7.66-8.53,8.32l9.62,12.45H86.58L77.3,51.38H67.77V63.45H65.6Zm12,15.11c4.87,0,8.49-2.46,8.49-6.66v-.08c0-3.92-3.08-6.37-8.37-6.37H67.77V49.42Z"/><path class="cls-2" d="M95.69,34.31h20.73v2H97.86V47.76h16.69v2H97.86v11.7h18.77v2H95.69Z"/><path class="cls-1" d="M0,.58H8.08V11.49H18.44V.58h8.08V29.72H18.44V18.65H8.08V29.72H0Z"/><path class="cls-1" d="M30.67,15.24v-.09C30.67,6.79,37.42,0,46.41,0S62.06,6.7,62.06,15.07v.08c0,8.37-6.74,15.15-15.74,15.15S30.67,23.6,30.67,15.24Zm23.15,0v-.09a7.58,7.58,0,0,0-7.5-7.87c-4.41,0-7.36,3.58-7.36,7.79v.08A7.56,7.56,0,0,0,46.41,23C50.86,23,53.82,19.44,53.82,15.24Z"/><path class="cls-1" d="M66.26.58h7.53l12,15.4V.58h8V29.72H86.7l-12.45-16v16h-8Z"/><path class="cls-1" d="M98.93.58h23.43V7.45H106.92v4.41h14v6.37h-14v4.62h15.65v6.87H98.93Z"/><path class="cls-1" d="M124.48,25.39,129,20a15,15,0,0,0,9.45,3.5c2.16,0,3.33-.75,3.33-2v-.08c0-1.21-1-1.88-4.91-2.79-6.21-1.42-11-3.16-11-9.16V9.41c0-5.41,4.28-9.33,11.28-9.33a18.37,18.37,0,0,1,12,3.87l-4,5.71a14.58,14.58,0,0,0-8.16-2.87c-2,0-2.92.83-2.92,1.87v.08c0,1.33,1,1.92,5,2.83,6.7,1.46,10.87,3.62,10.87,9.08v.08c0,5.95-4.71,9.49-11.78,9.49A20.33,20.33,0,0,1,124.48,25.39Z"/><path class="cls-1" d="M160.11,7.66h-8.74V.58h25.56V7.66h-8.74V29.72h-8.08Z"/><path class="cls-2" d="M.72,49v-.08c0-8.24,6.16-15.07,14.56-15.07,5.21,0,8.33,1.92,11.33,4.66l-1.54,1.58a13.4,13.4,0,0,0-9.83-4.28c-7,0-12.28,5.7-12.28,13v.08C3,56.25,8.33,62,15.28,62c4.21,0,7.08-1.62,10-4.54l1.45,1.42C23.69,61.91,20.36,64,15.2,64,6.88,64,.72,57.33.72,49Z"/><path class="cls-2" d="M43.79,34.1h2.08L59.45,63.45H57.07l-3.7-8.16H36.18l-3.71,8.16H30.22Zm8.66,19.23L44.79,36.47l-7.7,16.86Z"/><path class="cls-2" d="M65.6,34.31H77.84c3.58,0,6.45,1.12,8.2,2.87a7.7,7.7,0,0,1,2.2,5.41v.09c0,4.87-3.62,7.66-8.53,8.32l9.62,12.45H86.58L77.3,51.38H67.77V63.45H65.6Zm12,15.11c4.87,0,8.49-2.46,8.49-6.66v-.08c0-3.92-3.08-6.37-8.37-6.37H67.77V49.42Z"/><path class="cls-2" d="M95.69,34.31h20.73v2H97.86V47.76h16.69v2H97.86v11.7h18.77v2H95.69Z"/></g></g></svg>